<?xml version="1.0" encoding="UTF-8"?>
<!DOCTYPE svg PUBLIC "-//W3C//DTD SVG 1.1//EN" "http://www.w3.org/Graphics/SVG/1.1/DTD/svg11.dtd">
<svg version="1.1" id="sprites" xmlns="http://www.w3.org/2000/svg" xmlns:xlink="http://www.w3.org/1999/xlink" x="0px" y="0px" width="320px" height="50px" viewBox="0 0 320 50" enable-background="new 0 0 320 50" xml:space="preserve">
<g id="apple">
	<g>
		<path fill="#373737" d="M160,43.242c0,3.732-3.166,6.758-7.071,6.758H7.073C3.167,50,0,46.975,0,43.242V6.758    C0,3.025,3.167,0,7.073,0h145.856c3.904,0,7.07,3.025,7.07,6.758L160,43.242L160,43.242z"/>
		<path fill="#FFFFFF" d="M35.594,24.688c-0.035-3.848,3.171-5.721,3.317-5.807c-1.815-2.631-4.63-2.99-5.619-3.02    c-2.363-0.246-4.656,1.406-5.86,1.406c-1.229,0-3.083-1.383-5.081-1.342c-2.572,0.039-4.978,1.52-6.297,3.815    c-2.723,4.684-0.692,11.567,1.917,15.354c1.305,1.855,2.83,3.925,4.826,3.853c1.953-0.079,2.683-1.235,5.039-1.235    c2.335,0,3.02,1.235,5.057,1.188c2.096-0.032,3.414-1.862,4.674-3.732c1.508-2.125,2.114-4.219,2.139-4.326    C39.655,30.824,35.635,29.299,35.594,24.688z"/>
		<path fill="#FFFFFF" d="M31.748,13.371c1.05-1.305,1.769-3.08,1.569-4.882c-1.52,0.067-3.421,1.045-4.516,2.321    c-0.969,1.125-1.834,2.967-1.611,4.7C28.899,15.639,30.652,14.656,31.748,13.371z"/>
		<g>
			<path fill="#FFFFFF" d="M63.878,38.682h-2.729l-1.495-4.668h-5.196l-1.424,4.668h-2.657l5.149-15.891h3.18L63.878,38.682z      M59.204,32.057l-1.352-4.149c-0.144-0.425-0.413-1.423-0.807-2.993h-0.049c-0.158,0.676-0.412,1.675-0.76,2.993l-1.328,4.149     H59.204z"/>
			<path fill="#FFFFFF" d="M77.095,32.812c0,1.947-0.532,3.488-1.598,4.619c-0.955,1.006-2.141,1.508-3.555,1.508     c-1.527,0-2.626-0.539-3.293-1.625v6.013h-2.562V30.99c0-1.225-0.032-2.479-0.095-3.766h2.253l0.144,1.814h0.048     c0.854-1.367,2.151-2.051,3.892-2.051c1.36,0,2.495,0.533,3.404,1.602C76.64,29.66,77.095,31.066,77.095,32.812z M74.485,32.904     c0-1.115-0.253-2.034-0.76-2.76c-0.555-0.752-1.298-1.129-2.23-1.129c-0.633,0-1.207,0.209-1.72,0.622     c-0.515,0.419-0.851,0.964-1.009,1.64c-0.078,0.315-0.118,0.572-0.118,0.774v1.912c0,0.832,0.257,1.535,0.771,2.111     c0.515,0.571,1.183,0.86,2.005,0.86c0.965,0,1.715-0.371,2.253-1.108C74.216,35.09,74.485,34.115,74.485,32.904z"/>
			<path fill="#FFFFFF" d="M90.358,32.812c0,1.947-0.532,3.488-1.598,4.619c-0.955,1.006-2.141,1.508-3.557,1.508     c-1.527,0-2.625-0.539-3.293-1.625v6.013h-2.56V30.99c0-1.225-0.032-2.479-0.095-3.766h2.253l0.144,1.814h0.047     c0.854-1.367,2.15-2.051,3.893-2.051c1.358,0,2.494,0.533,3.405,1.602C89.901,29.66,90.358,31.066,90.358,32.812z M87.747,32.904     c0-1.115-0.254-2.034-0.761-2.76c-0.554-0.752-1.296-1.129-2.228-1.129c-0.633,0-1.207,0.209-1.723,0.622     c-0.514,0.419-0.85,0.964-1.007,1.64c-0.078,0.315-0.12,0.572-0.12,0.774v1.912c0,0.832,0.258,1.535,0.771,2.111     c0.515,0.571,1.183,0.86,2.007,0.86c0.967,0,1.717-0.371,2.253-1.108C87.478,35.09,87.747,34.115,87.747,32.904z"/>
			<path fill="#FFFFFF" d="M105.188,34.225c0,1.353-0.477,2.452-1.422,3.301c-1.041,0.927-2.494,1.392-4.356,1.392     c-1.722,0-3.101-0.33-4.142-0.99l0.593-2.12c1.124,0.66,2.358,0.99,3.701,0.99c0.966,0,1.718-0.218,2.253-0.648     c0.537-0.433,0.809-1.01,0.809-1.73c0-0.646-0.225-1.188-0.665-1.627c-0.443-0.439-1.177-0.85-2.206-1.225     c-2.801-1.039-4.201-2.557-4.201-4.554c0-1.303,0.494-2.37,1.482-3.204c0.988-0.834,2.298-1.25,3.928-1.25     c1.455,0,2.668,0.252,3.63,0.754l-0.644,2.075c-0.905-0.487-1.928-0.729-3.072-0.729c-0.903,0-1.612,0.221-2.119,0.66     c-0.428,0.393-0.644,0.871-0.644,1.438c0,0.627,0.247,1.146,0.737,1.556c0.425,0.377,1.201,0.785,2.323,1.227     c1.378,0.551,2.39,1.193,3.037,1.932C104.863,32.206,105.188,33.127,105.188,34.225z"/>
			<path fill="#FFFFFF" d="M113.681,29.135h-2.824v5.562c0,1.414,0.498,2.119,1.495,2.119c0.458,0,0.837-0.037,1.138-0.117     l0.071,1.934c-0.505,0.188-1.169,0.281-1.993,0.281c-1.012,0-1.803-0.307-2.373-0.921c-0.568-0.614-0.854-1.642-0.854-3.089     v-5.775h-1.683v-1.91h1.683v-2.098l2.517-0.755v2.853h2.824L113.681,29.135L113.681,29.135z"/>
			<path fill="#FFFFFF" d="M126.397,32.857c0,1.762-0.508,3.207-1.52,4.338c-1.059,1.164-2.467,1.744-4.223,1.744     c-1.694,0-3.041-0.558-4.047-1.672c-1.004-1.115-1.506-2.521-1.506-4.22c0-1.774,0.519-3.229,1.553-4.358     c1.037-1.133,2.434-1.698,4.189-1.698c1.692,0,3.052,0.559,4.08,1.674C125.908,29.746,126.397,31.145,126.397,32.857z      M123.741,32.916c0-1.049-0.229-1.949-0.686-2.703c-0.537-0.909-1.307-1.363-2.303-1.363c-1.026,0-1.813,0.454-2.35,1.363     c-0.459,0.754-0.688,1.67-0.688,2.752c0,1.051,0.229,1.953,0.688,2.703c0.554,0.91,1.326,1.365,2.328,1.365     c0.979,0,1.747-0.465,2.302-1.387C123.505,34.875,123.741,33.969,123.741,32.916z"/>
			<path fill="#FFFFFF" d="M134.729,29.463c-0.253-0.047-0.524-0.07-0.808-0.07c-0.9,0-1.598,0.336-2.088,1.015     c-0.426,0.598-0.64,1.352-0.64,2.264v6.013h-2.562v-7.851c0-1.319-0.024-2.522-0.074-3.606h2.231l0.094,2.191h0.07     c0.272-0.753,0.697-1.361,1.281-1.816c0.571-0.408,1.188-0.611,1.853-0.611c0.236,0,0.45,0.016,0.641,0.046L134.729,29.463     L134.729,29.463z"/>
			<path fill="#FFFFFF" d="M146.187,32.41c0,0.456-0.029,0.841-0.094,1.154h-7.686c0.029,1.133,0.401,1.998,1.115,2.596     c0.647,0.533,1.485,0.801,2.514,0.801c1.139,0,2.177-0.18,3.11-0.541l0.401,1.766c-1.092,0.474-2.379,0.709-3.866,0.709     c-1.788,0-3.191-0.522-4.213-1.566c-1.019-1.045-1.53-2.448-1.53-4.208c0-1.728,0.475-3.165,1.426-4.312     c0.994-1.226,2.34-1.839,4.031-1.839c1.662,0,2.92,0.613,3.775,1.839C145.847,29.777,146.187,30.98,146.187,32.41z      M143.744,31.75c0.019-0.756-0.15-1.406-0.497-1.957c-0.443-0.709-1.127-1.062-2.041-1.062c-0.838,0-1.521,0.347-2.039,1.037     c-0.427,0.551-0.681,1.213-0.759,1.98L143.744,31.75L143.744,31.75z"/>
		</g>
		<g>
			<path fill="#FFFFFF" d="M57.969,17.104h-1.343l-0.734-2.293h-2.553l-0.701,2.293h-1.307l2.531-7.81h1.562L57.969,17.104z      M55.671,13.85l-0.664-2.039c-0.07-0.209-0.199-0.694-0.396-1.472h-0.025c-0.081,0.335-0.197,0.822-0.373,1.472l-0.652,2.039     H55.671z"/>
			<path fill="#FFFFFF" d="M64.297,11.475l-2.146,5.631h-1.225l-2.076-5.631h1.353l0.969,2.978c0.164,0.498,0.303,0.974,0.408,1.425     h0.034c0.094-0.404,0.233-0.88,0.407-1.425l0.957-2.978H64.297L64.297,11.475z"/>
			<path fill="#FFFFFF" d="M68.866,17.104l-0.094-0.646h-0.035c-0.385,0.521-0.945,0.775-1.656,0.775     c-1.014,0-1.737-0.707-1.737-1.657c0-1.39,1.212-2.108,3.312-2.108v-0.104c0-0.742-0.396-1.113-1.178-1.113     c-0.56,0-1.051,0.141-1.48,0.418l-0.256-0.822c0.525-0.324,1.178-0.486,1.948-0.486c1.48,0,2.228,0.775,2.228,2.328v2.074     c0,0.568,0.024,1.01,0.082,1.344L68.866,17.104L68.866,17.104z M68.69,14.3c-1.4,0-2.1,0.337-2.1,1.136     c0,0.592,0.361,0.881,0.863,0.881c0.642,0,1.236-0.485,1.236-1.146L68.69,14.3L68.69,14.3z"/>
			<path fill="#FFFFFF" d="M72.722,10.547c-0.419,0-0.746-0.324-0.746-0.754c0-0.429,0.338-0.742,0.771-0.742     c0.432,0,0.781,0.313,0.769,0.742C73.515,10.246,73.189,10.547,72.722,10.547z M73.376,17.104h-1.26v-5.629h1.26V17.104z"/>
			<path fill="#FFFFFF" d="M76.873,17.104h-1.26V8.891h1.26V17.104z"/>
			<path fill="#FFFFFF" d="M82.226,17.104l-0.094-0.646h-0.035c-0.385,0.521-0.944,0.775-1.656,0.775     c-1.014,0-1.737-0.707-1.737-1.657c0-1.39,1.212-2.108,3.312-2.108v-0.104c0-0.742-0.396-1.113-1.178-1.113     c-0.56,0-1.05,0.141-1.48,0.418l-0.257-0.824c0.525-0.324,1.178-0.486,1.948-0.486c1.48,0,2.228,0.775,2.228,2.33v2.072     c0,0.568,0.025,1.01,0.081,1.346h-1.132V17.104z M82.05,14.3c-1.4,0-2.1,0.337-2.1,1.136c0,0.592,0.361,0.881,0.863,0.881     c0.642,0,1.236-0.485,1.236-1.146L82.05,14.3L82.05,14.3z"/>
			<path fill="#FFFFFF" d="M88.378,17.232c-0.804,0-1.397-0.336-1.781-0.996h-0.025L86.5,17.104h-1.074     c0.035-0.451,0.048-0.961,0.048-1.518V8.891h1.261v3.406h0.023c0.374-0.626,0.979-0.938,1.808-0.938     c1.365,0,2.321,1.16,2.321,2.85C90.886,15.957,89.823,17.232,88.378,17.232z M88.122,12.342c-0.725,0-1.388,0.626-1.388,1.495     v0.985c0,0.775,0.596,1.414,1.366,1.414c0.943,0,1.504-0.766,1.504-1.981C89.604,13.119,89.021,12.342,88.122,12.342z"/>
			<path fill="#FFFFFF" d="M94.007,17.104h-1.258V8.891h1.258V17.104z"/>
			<path fill="#FFFFFF" d="M100.862,14.591h-3.78c0.025,1.065,0.734,1.667,1.784,1.667c0.561,0,1.074-0.092,1.527-0.266l0.197,0.869     c-0.537,0.23-1.166,0.348-1.9,0.348c-1.773,0-2.823-1.113-2.823-2.838c0-1.727,1.074-3.023,2.681-3.023     c1.446,0,2.357,1.064,2.357,2.676C100.909,14.242,100.899,14.439,100.862,14.591z M99.708,13.698     c0-0.868-0.443-1.483-1.248-1.483c-0.725,0-1.293,0.627-1.378,1.483H99.708z"/>
			<path fill="#FFFFFF" d="M108.496,17.232c-1.655,0-2.729-1.229-2.729-2.896c0-1.738,1.097-2.979,2.824-2.979     c1.631,0,2.729,1.17,2.729,2.887C111.32,16.004,110.188,17.232,108.496,17.232z M108.544,12.271     c-0.909,0-1.492,0.847-1.492,2.027c0,1.159,0.595,2.005,1.48,2.005c0.885,0,1.479-0.903,1.479-2.028     C110.013,13.131,109.43,12.271,108.544,12.271z"/>
			<path fill="#FFFFFF" d="M118.091,17.104h-1.258v-3.232c0-0.996-0.385-1.494-1.144-1.494c-0.746,0-1.261,0.639-1.261,1.379v3.35     h-1.258v-4.021c0-0.498-0.014-1.032-0.047-1.611h1.107l0.06,0.869h0.034c0.337-0.602,1.027-0.984,1.796-0.984     c1.188,0,1.97,0.904,1.97,2.375L118.091,17.104L118.091,17.104z"/>
			<path fill="#FFFFFF" d="M126.331,12.412h-1.386v2.734c0,0.695,0.244,1.043,0.733,1.043c0.223,0,0.41-0.023,0.56-0.059l0.035,0.95     c-0.245,0.094-0.573,0.142-0.979,0.142c-0.992,0-1.585-0.546-1.585-1.972v-2.84h-0.826v-0.938h0.826v-1.031l1.235-0.371v1.4     h1.386L126.331,12.412L126.331,12.412z"/>
			<path fill="#FFFFFF" d="M133.001,17.104h-1.261v-3.209c0-1.008-0.385-1.518-1.144-1.518c-0.652,0-1.258,0.439-1.258,1.333v3.396     h-1.261V8.891h1.261v3.381h0.023c0.397-0.612,0.969-0.914,1.703-0.914c1.201,0,1.936,0.926,1.936,2.397L133.001,17.104     L133.001,17.104z"/>
			<path fill="#FFFFFF" d="M139.436,14.591h-3.779c0.024,1.065,0.733,1.667,1.784,1.667c0.561,0,1.072-0.092,1.527-0.266     l0.196,0.869c-0.536,0.23-1.167,0.348-1.901,0.348c-1.773,0-2.822-1.113-2.822-2.838c0-1.727,1.074-3.023,2.682-3.023     c1.445,0,2.355,1.064,2.355,2.676C139.482,14.242,139.471,14.439,139.436,14.591z M138.28,13.698     c0-0.868-0.441-1.483-1.246-1.483c-0.725,0-1.295,0.627-1.378,1.483H138.28z"/>
		</g>
	</g>
</g>
</svg>